<svg xmlns="http://www.w3.org/2000/svg" width="100%" height="100%" viewBox="0 0 90 24">
  <defs>
    <style>
      .a {
        fill: #fff;
      }

      .b {
        fill: #415faa;
      }

      .c {
        fill: #231815;
      }

      .d {
        fill: #79afdf;
      }

      .e {
        fill: #2d4d86;
      }
    </style>
  </defs>
  <title>Dao IoT</title>
  <g>
    <path class="a" d="M26.6,6.186a22.827,22.827,0,0,1,3.609-.258,7.556,7.556,0,0,1,5.063,1.436,5.551,5.551,0,0,1,1.933,4.567,6.425,6.425,0,0,1-1.933,4.934,8.289,8.289,0,0,1-5.616,1.694,24.739,24.739,0,0,1-3.056-.166ZM28.866,16.7a8.318,8.318,0,0,0,1.252.056c2.946.018,4.7-1.6,4.7-4.751.018-2.743-1.565-4.308-4.4-4.308a7.214,7.214,0,0,0-1.546.129Z"/>
    <path class="a" d="M41.387,14.913,40.319,18.43H37.98L41.957,6.02h2.891L48.88,18.43H46.45l-1.123-3.517ZM44.94,13.2l-.976-3.056c-.239-.755-.442-1.6-.626-2.32H43.3c-.185.718-.369,1.583-.59,2.32L41.755,13.2Z"/>
    <path class="a" d="M61.236,12.1c0,4.161-2.522,6.537-5.947,6.537-3.5,0-5.707-2.67-5.707-6.316,0-3.811,2.393-6.5,5.892-6.5C59.1,5.818,61.236,8.561,61.236,12.1Zm-9.261.184c0,2.523,1.271,4.53,3.443,4.53,2.191,0,3.425-2.026,3.425-4.622,0-2.338-1.16-4.547-3.425-4.547C53.172,7.641,51.975,9.721,51.975,12.28Z"/>
    <path class="a" d="M69.265,6.02V18.43H67V6.02Z"/>
    <path class="a" d="M80.294,13.864a4.442,4.442,0,0,1-4.6,4.769A4.336,4.336,0,0,1,71.2,14.011a4.427,4.427,0,0,1,4.64-4.75A4.3,4.3,0,0,1,80.294,13.864Zm-6.758.092c0,1.731.847,3.038,2.228,3.038,1.289,0,2.191-1.271,2.191-3.075,0-1.4-.626-3-2.172-3C74.181,10.918,73.536,12.465,73.536,13.956Z"/>
    <path class="a" d="M83.793,7.917H80.258V6.02h9.371v1.9H86.057V18.43H83.793Z"/>
  </g>
  <g>
    <g>
      <path class="b" d="M8.022,13.627a4.772,4.772,0,0,0,2.2-3.6l.467-5.105a.635.635,0,0,0-.316.085L4.43,8.44a.637.637,0,0,0-.318.551v6.857a.624.624,0,0,0,.044.231Z"/>
      <polygon class="c" points="10.607 12.738 10.607 12.738 10.607 12.738 10.607 12.738"/>
      <path class="d" d="M16.942,8.44,11,5.012a.641.641,0,0,0-.317-.085l.36,5.058a4.77,4.77,0,0,0,2.188,3.681l3.93,2.514a.641.641,0,0,0,.1-.332V8.991A.639.639,0,0,0,16.942,8.44Z"/>
      <path class="e" d="M12.454,14.207a4.773,4.773,0,0,0-3.7-.007L4.173,16.117a.631.631,0,0,0,.257.282l5.938,3.428a.637.637,0,0,0,.636,0L16.942,16.4a.647.647,0,0,0,.213-.2Z"/>
    </g>
    <path class="d" d="M20.042,16V7.549a.9.9,0,0,0-.449-.777L12.3,2.561a1.618,1.618,0,0,0-3.23.026L1.824,6.772a.9.9,0,0,0-.449.777V16a1.62,1.62,0,1,0,1.592,2.724l7.292,4.21a.9.9,0,0,0,.9,0l7.312-4.221A1.62,1.62,0,1,0,20.042,16Zm-9.334,6.165L3.422,17.954a1.613,1.613,0,0,0-1.149-1.966V7.549L9.29,3.5a1.617,1.617,0,0,0,2.8-.018l7.05,4.07V16a1.62,1.62,0,0,0-1.171,1.556,1.588,1.588,0,0,0,.049.386Z"/>
  </g>
</svg>
